<svg width="321" height="100" viewBox="0 0 321 100" fill="none" xmlns="http://www.w3.org/2000/svg">
<g clip-path="url(#clip0)">
<path d="M168.701 25.1C168.701 28.7 165.801 31.6 162.201 31.6C158.601 31.6 155.701 28.7 155.701 25.1C155.701 21.5 158.501 18.6 162.201 18.6C165.901 18.7 168.701 21.6 168.701 25.1ZM141.901 38.2C141.901 38.8 141.901 39.8 141.901 39.8C141.901 39.8 138.801 35.8 132.201 35.8C121.301 35.8 112.801 44.1 112.801 55.6C112.801 67 121.201 75.4 132.201 75.4C138.901 75.4 141.901 71.3 141.901 71.3V73C141.901 73.8 142.501 74.4 143.301 74.4H151.401V36.8C151.401 36.8 144.001 36.8 143.301 36.8C142.501 36.8 141.901 37.5 141.901 38.2ZM141.901 62.3C140.401 64.5 137.401 66.4 133.801 66.4C127.401 66.4 122.501 62.4 122.501 55.6C122.501 48.8 127.401 44.8 133.801 44.8C137.301 44.8 140.501 46.8 141.901 48.9V62.3ZM157.401 36.8H167.001V74.4H157.401V36.8ZM300.801 35.8C294.201 35.8 291.101 39.8 291.101 39.8V18.7H281.501V74.4C281.501 74.4 288.901 74.4 289.601 74.4C290.401 74.4 291.001 73.7 291.001 73V71.3C291.001 71.3 294.101 75.4 300.701 75.4C311.601 75.4 320.101 67 320.101 55.6C320.101 44.2 311.601 35.8 300.801 35.8ZM299.201 66.3C295.501 66.3 292.601 64.4 291.101 62.2V48.8C292.601 46.8 295.801 44.7 299.201 44.7C305.601 44.7 310.501 48.7 310.501 55.5C310.501 62.3 305.601 66.3 299.201 66.3ZM276.501 52.1V74.5H266.901V53.2C266.901 47 264.901 44.5 259.501 44.5C256.601 44.5 253.601 46 251.701 48.2V74.4H242.101V36.8H249.701C250.501 36.8 251.101 37.5 251.101 38.2V39.8C253.901 36.9 257.601 35.8 261.301 35.8C265.501 35.8 269.001 37 271.801 39.4C275.201 42.2 276.501 45.8 276.501 52.1ZM218.801 35.8C212.201 35.8 209.101 39.8 209.101 39.8V18.7H199.501V74.4C199.501 74.4 206.901 74.4 207.601 74.4C208.401 74.4 209.001 73.7 209.001 73V71.3C209.001 71.3 212.101 75.4 218.701 75.4C229.601 75.4 238.101 67 238.101 55.6C238.201 44.2 229.701 35.8 218.801 35.8ZM217.201 66.3C213.501 66.3 210.601 64.4 209.101 62.2V48.8C210.601 46.8 213.801 44.7 217.201 44.7C223.601 44.7 228.501 48.7 228.501 55.5C228.501 62.3 223.601 66.3 217.201 66.3ZM191.201 35.8C194.101 35.8 195.601 36.3 195.601 36.3V45.2C195.601 45.2 187.601 42.5 182.601 48.2V74.5H173.001V36.8C173.001 36.8 180.401 36.8 181.101 36.8C181.901 36.8 182.501 37.5 182.501 38.2V39.8C184.301 37.7 188.201 35.8 191.201 35.8ZM91.5005 71C91.0005 69.8 90.5005 68.5 90.0005 67.4C89.2005 65.6 88.4005 63.9 87.7005 62.3L87.6005 62.2C80.7005 47.2 73.3005 32 65.5005 17L65.2005 16.4C64.4005 14.9 63.6005 13.3 62.8005 11.7C61.8005 9.9 60.8005 8 59.2005 6.2C56.0005 2.2 51.4005 0 46.5005 0C41.5005 0 37.0005 2.2 33.7005 6C32.2005 7.8 31.1005 9.7 30.1005 11.5C29.3005 13.1 28.5005 14.7 27.7005 16.2L27.4005 16.8C19.7005 31.8 12.2005 47 5.30052 62L5.20052 62.2C4.50052 63.8 3.70052 65.5 2.90052 67.3C2.40052 68.4 1.90052 69.6 1.40052 70.9C0.100521 74.6 -0.299479 78.1 0.200521 81.7C1.30052 89.2 6.30052 95.5 13.2005 98.3C15.8005 99.4 18.5005 99.9 21.3005 99.9C22.1005 99.9 23.1005 99.8 23.9005 99.7C27.2005 99.3 30.6005 98.2 33.9005 96.3C38.0005 94 41.9005 90.7 46.3005 85.9C50.7005 90.7 54.7005 94 58.7005 96.3C62.0005 98.2 65.4005 99.3 68.7005 99.7C69.5005 99.8 70.5005 99.9 71.3005 99.9C74.1005 99.9 76.9005 99.4 79.4005 98.3C86.4005 95.5 91.3005 89.1 92.4005 81.7C93.2005 78.2 92.8005 74.7 91.5005 71ZM46.4005 76.2C41.0005 69.4 37.5005 63 36.3005 57.6C35.8005 55.3 35.7005 53.3 36.0005 51.5C36.2005 49.9 36.8005 48.5 37.6005 47.3C39.5005 44.6 42.7005 42.9 46.4005 42.9C50.1005 42.9 53.4005 44.5 55.2005 47.3C56.0005 48.5 56.6005 49.9 56.8005 51.5C57.1005 53.3 57.0005 55.4 56.5005 57.6C55.3005 62.9 51.8005 69.3 46.4005 76.2ZM86.3005 80.9C85.6005 86.1 82.1005 90.6 77.2005 92.6C74.8005 93.6 72.2005 93.9 69.6005 93.6C67.1005 93.3 64.6005 92.5 62.0005 91C58.4005 89 54.8005 85.9 50.6005 81.3C57.2005 73.2 61.2005 65.8 62.7005 59.2C63.4005 56.1 63.5005 53.3 63.2005 50.7C62.8005 48.2 61.9005 45.9 60.5005 43.9C57.4005 39.4 52.2005 36.8 46.4005 36.8C40.6005 36.8 35.4005 39.5 32.3005 43.9C30.9005 45.9 30.0005 48.2 29.6005 50.7C29.2005 53.3 29.3005 56.2 30.1005 59.2C31.6005 65.8 35.7005 73.3 42.2005 81.4C38.1005 86 34.4005 89.1 30.8005 91.1C28.2005 92.6 25.7005 93.4 23.2005 93.7C20.5005 94 17.9005 93.6 15.6005 92.7C10.7005 90.7 7.20052 86.2 6.50052 81C6.20052 78.5 6.40052 76 7.40052 73.2C7.70052 72.2 8.20052 71.2 8.70052 70C9.40052 68.4 10.2005 66.7 11.0005 65L11.1005 64.8C18.0005 49.9 25.4005 34.7 33.1005 19.9L33.4005 19.3C34.2005 17.8 35.0005 16.2 35.8005 14.7C36.6005 13.1 37.5005 11.6 38.6005 10.3C40.7005 7.9 43.5005 6.6 46.6005 6.6C49.7005 6.6 52.5005 7.9 54.6005 10.3C55.7005 11.6 56.6005 13.1 57.4005 14.7C58.2005 16.2 59.0005 17.8 59.8005 19.3L60.1005 19.9C67.7005 34.8 75.1005 50 82.0005 64.9V65C82.8005 66.6 83.5005 68.4 84.3005 70C84.8005 71.2 85.3005 72.2 85.6005 73.2C86.4005 75.8 86.7005 78.3 86.3005 80.9Z" fill="#F9CDCD"/>
</g>
<defs>
<clipPath id="clip0">
<rect width="320.1" height="99.9" fill="white"/>
</clipPath>
</defs>
</svg>
