<svg width="770" height="150" viewBox="0 0 770 150" fill="none" xmlns="http://www.w3.org/2000/svg">
<path d="M770 59.0999C768.7 58.6999 767.4 58.2 765.7 58.2C759.8 58.2 755.7 61.5 752.1 66.5V65.5999C752.1 62.4999 751.4 60.5999 750.1 58.2999L739.8 61C741.2 64.1 741.7 67.9999 741.7 74.5999V112.6H753V77.1999C753.4 74.2999 754.4 73.1 756.1 71.3C758.1 69.4 760.7 69 763.1 69C764.2 69 765.1 69.2999 766.4 69.5999L770 59.0999ZM732.9 89.0999V86.8C732.8 74.9 730.6 68.4999 726.3 64.0999C722.7 60.3999 717.3 58.4 711.4 58.4C704.8 58.4 699.5 60.6999 695.3 65.6999C691 70.3999 688.7 76.9999 688.7 86.0999C688.7 103.2 698 114 713 114C720 114 726.6 111.6 732 107L727.7 100.3C723.7 103.6 719.3 105.3 714.6 105.3C709.6 105.3 705.7 103.4 703.3 99.6999C701.9 97.3999 701 93.4 701 89.8V88.9H732.9V89.0999ZM684.9 112.5L682.9 105.6C681.2 105.9 680 105.7 679.3 104.9C678.4 103.9 678 101.5 678 96.5V50.7999C678 43.8999 678 39.4 677.1 35.7L665.7 38.2999C666.7 42.3999 666.8 46.2 666.8 53.7V99.4C666.8 105.1 667.8 108.3 669.2 110.3C671.1 112.9 674.2 114 677.9 114C680.4 113.8 682.6 113.5 684.9 112.5ZM629.6 44.0999C629.6 39.9999 626.2 36.5 622 36.5C618 36.5 614.4 39.8999 614.4 44.0999C614.4 48.2999 617.8 51.7 621.8 51.7C626.1 51.6 629.6 48.2999 629.6 44.0999ZM659 112.5L657 105.6C656.7 105.6 656 105.7 655.7 105.7C653.6 105.7 652.3 104.7 652.3 100.6V50.7999C652.3 43.8999 652.3 39.4 651.4 35.7L640 38.2C641 42.3 641.1 46.0999 641.1 53.5999V101.5C641.1 109.4 645.5 113.9 652 113.9C654.9 113.8 656.9 113.5 659 112.5ZM627.6 112.6V58.5L616.3 60.4V112.7H627.6V112.6ZM604.6 112.6L598.3 40.2999H582.9L568.8 93.9L554.2 40.2999H538.3L531.6 112.6H542.2L547.2 51.9L563.6 112.6H572.3L589 52.9L593.7 112.6H604.6ZM518.6 112.6V73.3C518.6 63.4 512.7 58.5999 504.5 58.5999C499.1 58.5999 494.2 60.6999 488.5 65.5999C488.5 62.9999 487.9 60.6999 486.6 58.2999L476.3 61.2C477.9 64.9 478.2 67.6 478.2 73.5V112.5H489.3V74.0999C492.7 70.4999 497.9 67.8 501.6 67.8C505.9 67.8 507.7 69.8999 507.7 77.1999V112.5L518.6 112.6ZM469 107.8C465.1 105.4 464.3 103.2 464.3 97.0999C464.3 96.4999 464.4 96.1 464.4 95.5L464.7 79.8V76.4C464.7 71.1 464.4 69.4 463.7 67.3C461.7 61.6 455.8 58.5999 447.8 58.5999C443.1 58.5999 438.4 59.4999 433.5 61.5999C430.5 62.9999 428.1 63.9 425.1 65.9L430.1 73.8C432.4 72.2 433.8 71.3999 436.4 70.1999C440.1 68.4999 443.3 67.8 446.1 67.8C449.1 67.8 451 68.4999 452.2 70.0999C453.3 71.4999 453.6 73.4999 453.6 77.1999V80.1999C452 80.0999 451.3 80.0999 450.2 80.0999C432.9 80.0999 423.5 86.4 423.5 98.8C423.5 102.8 424.8 107.5 427.6 110.2C430.6 112.9 434.6 114.5 440.9 114.5C445.6 114.5 449 113.4 452.2 111.2C453.3 110.2 454.1 109.6 455.6 108.1C456.7 111.4 459.6 114 463 115.2L469 107.8ZM414.1 112.6V73.8C414.1 67.9 412.8 64.3999 410 61.7999C407.9 59.6999 404.1 58.7 400.3 58.7C394.6 58.7 388.4 61.6999 384.2 66.5999C381.9 61.5999 377.2 58.7 371.8 58.7C366.8 58.7 361.2 61.4 357.5 65.4C357.2 62.8 356.5 60.4999 355.5 58.7999L345.4 61.4C346.8 64.8 347.3 66.8 347.3 74.5V112.8H358V73.5999C362.3 69.6999 365.9 68.1999 369.1 68.1999C373.7 68.1999 375 70.4999 375 76.5999V112.7H385.9V74.5C390.3 70.1 394.2 67.9 397.5 67.9C401.5 67.9 403.1 70.1999 403.1 75.5999V112.7L414.1 112.6ZM342.1 59.0999C341 58.6999 339.5 58.2 337.8 58.2C332.4 58.2 327.9 61.5 324.5 66.5V65.5999C324.5 62.4999 323.6 60.5999 322.6 58.2999L312.2 61C313.5 64.1 314.1 67.9999 314.1 74.5999V112.6H325.4V77.1999C325.8 74.2999 326.7 73.1 328.4 71.3C330.4 69.4 333 69 335.4 69C336.8 69 337.4 69.2999 338.7 69.5999L342.1 59.0999ZM305 89.0999V86.8C304.9 74.9 302.7 68.4999 298.3 64.0999C294.7 60.3999 289.4 58.4 283.6 58.4C276.9 58.4 271.6 60.6999 267.3 65.6999C263.2 70.3999 260.9 76.9999 260.9 86.0999C260.9 103.2 270 114 285 114C292.3 114 298.6 111.6 304.1 107L299.8 100.3C295.8 103.6 291.5 105.3 286.7 105.3C281.8 105.3 277.8 103.4 275.3 99.6999C273.7 97.2999 273.2 93.6 273.2 89.8V88.9H305V89.0999ZM251.9 112.6V40.2999H240.5V69.5999H214.2V40.2999H203V112.6H214.1V78.9H240.4V112.6H251.9V112.6ZM721.1 80.8H701.1C701.2 71.7 704.8 66.8 711.4 66.8C717.4 66.8 721.1 72.3 721.1 80.8ZM453.6 87.5L453.3 100.1C451 103.8 447.2 106.1 443.3 106.1C438.3 106.1 435.6 103.1 435.6 97.8C435.6 94.7 436.5 92.3999 438.3 90.6999C440.4 88.5999 444.6 87.4 451.3 87.4C452 87.3 452.7 87.5 453.6 87.5ZM293.4 80.8H273.1C273.2 71.7 277 66.8 283.4 66.8C289.7 66.8 293.4 72.3 293.4 80.8Z" fill="#F9CDCD"/>
<path d="M116.1 113.8V35.8H114.7C113 49.2 110.3 60.7 107 70.2C99.4 93.2 88.6 104.8 74.6 104.8C60.6 104.8 49.8 93.3 42 70.2C38.7 60.7 36.2 49.3 34.5 35.8H33.1V113.8C45.6 110.1 59.4 108.3 74.6 108.3C89.6 108.2 103.5 110.1 116.1 113.8ZM149.1 74.6C149.1 95.1 141.8 112.7 127.3 127.3C112.8 141.9 95.2 149.1 74.6 149.1C54.1 149.1 36.5 141.8 21.9 127.3C7.3 112.7 0 95.2 0 74.6C0 54.1 7.3 36.5 21.9 21.8C36.5 7.1 54.1 0 74.6 0C95.1 0 112.7 7.3 127.3 21.9C141.8 36.5 149.1 54.1 149.1 74.6Z" fill="#F9CDCD"/>
</svg>
