<svg width="494" height="126" viewBox="0 0 494 126" fill="none" xmlns="http://www.w3.org/2000/svg">
<path d="M0 4.23999H61.05C87.67 4.23999 98.61 16.36 98.61 34C98.61 45.18 91.23 56.3 81.4 61.05C93.78 65.12 102.51 75.29 102.51 87.59C102.51 110.14 86.4 122.95 58.76 122.95H0V4.23999ZM50.87 28H32.22V53.42H50.87C62.07 53.42 67 48.84 67 40.7C67 32.56 62.75 28 50.87 28ZM52.57 73.79H32.22V99.21H53.42C65.29 99.21 70.42 94.8 70.42 86.49C70.38 78 65.29 73.77 52.57 73.77V73.79Z" fill="black"/>
<path d="M218.76 81.68H250.13C250.81 94.27 260.39 101.68 273.44 101.68C284.98 101.68 292.27 97.32 292.27 89.62C292.27 84.21 289.27 80.89 279.04 78.79L253.6 73.38C233.76 69.19 221 58.87 221 39C221 15.4 241.52 0.900024 269.67 0.900024C299.01 0.900024 322.16 12.52 322.16 41.54H290.83C290 30.47 281.75 25 269.88 25C259.2 25 253.26 29.89 253.26 35.83C253.26 41.25 256.32 44.57 266.49 46.67L291.93 52.09C311.77 56.28 324.49 66.59 324.49 86.52C324.49 110.99 304.49 125.52 272.6 125.52C237.32 125.49 219.44 109 218.76 81.68Z" fill="black"/>
<path d="M434.89 97.88C449.64 97.88 458.55 88.88 460.41 78.22H493.48C490.6 110.02 464.9 125.49 434.89 125.49C395.89 125.49 373.16 100.49 373.16 62.75C373.16 25.01 395.88 0 434.89 0C464.89 0 490.6 15.82 493.48 47.63H460.41C458.55 36.97 449.64 27.63 434.89 27.63C417.59 27.63 406.89 42.49 406.89 62.77C406.89 83.05 417.59 97.88 434.89 97.88Z" fill="black"/>
<path d="M364.6 3.39001H332.38V122.1H364.6V3.39001Z" fill="black"/>
<path d="M189.93 122.1H223L181.45 3.39001H140.75L99.21 122.1H132.27L138.56 101.75H183.64L189.93 122.1ZM146.43 76.31L160.84 29.68H161.36L175.78 76.31H146.43Z" fill="black"/>
</svg>
