<svg width="1014" height="190" viewBox="0 0 1014 190" fill="none" xmlns="http://www.w3.org/2000/svg">
<path d="M851.635 0.793701C841.741 0.793701 826.856 9.0535 826.856 19.9922C826.856 29.1449 833.28 33.8329 842.482 33.8329C853.992 33.8329 872.173 28.9217 872.173 14.8577C872.173 3.24932 861.533 0.793701 851.635 0.793701ZM282.378 8.94188C281.151 8.66507 281.039 9.94645 281.039 9.94645C273.793 26.0865 258.322 37.6012 241.079 42.5392C241.079 42.5392 240.298 42.6999 240.298 43.6554V53.9243C240.298 55.4289 241.079 55.0405 241.079 55.0405H250.79C251.884 55.0405 251.572 55.9334 251.572 55.9334V121.119C251.572 140.536 259.648 150.586 280.592 150.586C299.269 150.586 300.644 150.126 315.418 139.536C315.418 139.536 316.364 139.206 315.864 138.085C315.463 137.183 311.623 128.151 311.288 127.035C310.877 125.668 309.948 126.477 309.948 126.477C307.247 127.852 306.618 127.816 303.14 127.816C299.688 127.816 293.764 126.477 293.764 119.556V55.9334C293.764 55.9334 293.539 55.0405 294.768 55.0405H309.613C309.613 55.0405 310.565 55.5138 310.841 54.1475C311.17 52.4867 313.967 38.6325 313.967 38.6325C313.967 38.6325 314.391 37.6279 313.297 37.6279H294.545C294.545 37.6279 293.764 37.9673 293.764 36.735V28.6984C293.764 23.9077 294.057 17.599 295.103 12.2905C295.103 12.2905 295.688 11.4466 294.322 11.1743C292.424 10.7948 283.611 9.20977 282.378 8.94188ZM534.191 17.0901C521.761 17.0901 517.64 20.4386 514.881 28.6984C514.881 28.6984 513.01 34.1231 512.425 36.0653C512.014 37.436 511.086 37.0699 511.086 37.0699C504.938 36.1189 498.33 34.2794 486.753 34.2794C461.67 34.2794 435.408 48.1201 435.408 80.2664C435.408 103.041 454.142 116.172 473.358 119.556C473.358 119.556 476.395 120.012 473.358 120.896C467.657 122.548 455.714 129.642 442.105 131.834C442.105 131.834 440.752 131.981 441.435 133.62C441.771 134.424 445.543 143.903 446.123 145.452C446.534 146.546 447.909 146.345 447.909 146.345C454.267 145.046 472.542 146.715 475.814 147.126C478.676 147.488 475.814 147.907 475.814 147.907C466.215 149.542 455.053 156.493 455.053 166.883C455.053 184.96 475.765 189.206 496.017 189.206C509.827 189.206 543.12 183.402 543.12 159.069C543.12 134.674 505.447 129.928 486.976 128.151C483.833 127.852 486.976 127.258 486.976 127.258C514.528 120.449 546.804 113.158 546.804 78.4805C546.804 52.3616 525.15 45.4413 525.15 40.9765C525.15 38.5209 526.632 36.2215 529.391 36.0653C534.177 35.7885 534.378 36.2082 536.758 37.6279C536.758 37.6279 537.463 38.82 537.874 37.1815C538.117 36.2126 542.227 20.0055 542.451 18.7643C542.726 17.2597 541.446 17.6482 541.446 17.6482C539.04 17.416 536.548 17.0901 534.191 17.0901V17.0901ZM155.356 29.1449C154.867 29.2931 154.798 29.9262 154.798 29.9262C154.798 29.9262 141.506 62.6038 140.957 63.97C140.413 65.3362 141.404 65.4211 141.404 65.4211C141.404 65.4211 152.45 69.3366 153.682 69.8858C154.91 70.4305 155.356 69.5511 155.356 69.5511C161.375 62.1441 167.42 57.4963 180.359 57.4963C190.485 57.4963 195.539 61.2913 195.539 70.4441V73.9043C195.539 75.1321 195.093 75.2437 195.093 75.2437L163.951 76.025C143.471 76.025 126.893 90.7632 126.893 116.654C126.893 137.42 142.565 150.586 163.504 150.586C175.885 150.586 185.663 145.251 194.646 138.085C194.646 138.085 196.133 135.759 196.544 138.085C196.954 140.411 197.825 143.398 198.441 146.01C198.763 147.363 199.669 147.238 199.669 147.238H243.312C243.312 147.238 244.986 147.792 244.986 146.01V135.071C244.986 135.071 245.312 133.844 243.535 133.844H238.512C237.418 133.844 237.619 131.834 237.619 131.834V71.337C237.619 44.995 220.644 34.2796 194.869 34.2796C185.761 34.2796 176.997 35.5431 168.416 38.8559C168.416 38.8559 166.54 40.0034 167.634 37.4049C168.157 36.1637 168.639 34.726 168.639 34.726C168.639 34.726 169.224 33.4893 167.857 32.9401C166.353 32.391 157.651 29.7523 156.026 29.1451C155.752 29.0426 155.519 29.0958 155.356 29.1451V29.1449ZM345.22 29.1449C344.73 29.2931 344.662 29.9262 344.662 29.9262C344.662 29.9262 331.37 62.6038 330.821 63.97C330.277 65.3407 331.268 65.4211 331.268 65.4211C331.268 65.4211 342.314 69.3411 343.545 69.8858C344.778 70.435 345.22 69.5511 345.22 69.5511C351.234 62.1441 357.172 57.4963 370.111 57.4963C380.237 57.4963 385.291 61.2913 385.291 70.4441V73.9043C385.291 75.1365 384.956 75.2437 384.956 75.2437L353.814 76.025C333.33 76.025 316.756 90.7587 316.756 116.654C316.756 137.411 332.423 150.586 353.367 150.586C365.744 150.586 375.419 145.251 384.398 138.085C384.398 138.085 385.991 135.759 386.406 138.085C386.818 140.407 387.683 143.398 388.304 146.01C388.622 147.367 389.532 147.238 389.532 147.238H433.063C433.063 147.238 434.849 147.787 434.849 146.01V135.071C434.849 135.071 435.174 133.844 433.398 133.844H428.375C427.281 133.844 427.482 131.834 427.482 131.834V71.337C427.482 44.995 410.4 34.2796 384.621 34.2796C375.517 34.2796 366.864 35.5431 358.278 38.8559C358.278 38.8559 356.404 40.0034 357.497 37.4049C358.02 36.1637 358.39 34.6144 358.39 34.6144C358.39 34.6144 358.975 33.4893 357.609 32.9401C356.104 32.3954 347.51 29.7523 345.889 29.1451C345.614 29.0426 345.383 29.0958 345.219 29.1451L345.22 29.1449ZM906.551 29.1449C906.061 29.2931 905.993 29.9262 905.993 29.9262C905.993 29.9262 892.702 62.6038 892.153 63.97C891.608 65.3407 892.599 65.4211 892.599 65.4211C892.599 65.4211 903.645 69.3411 904.877 69.8858C906.109 70.435 906.551 69.5511 906.551 69.5511C912.566 62.1441 918.504 57.4963 931.443 57.4963C941.569 57.4963 946.623 61.2913 946.623 70.4441V73.9043C946.623 75.1365 946.287 75.2437 946.287 75.2437L915.145 76.025C894.657 76.025 878.088 90.7587 878.088 116.654C878.088 137.411 893.755 150.586 914.699 150.586C927.075 150.586 936.751 145.251 945.729 138.085C945.729 138.085 947.323 135.759 947.738 138.085C948.149 140.407 949.015 143.398 949.636 146.01C949.954 147.367 950.863 147.238 950.863 147.238H994.395C994.395 147.238 996.181 147.787 996.181 146.01V135.071C996.181 135.071 996.506 133.844 994.73 133.844H989.707C988.613 133.844 988.814 131.834 988.814 131.834V71.337C988.814 44.995 971.732 34.2796 945.952 34.2796C936.849 34.2796 928.196 35.5431 919.61 38.8559C919.61 38.8559 917.73 40.0034 918.829 37.4049C919.347 36.1637 919.722 34.6144 919.722 34.6144C919.722 34.6144 920.307 33.4893 918.94 32.9401C917.436 32.3954 908.841 29.7523 907.221 29.1451C906.946 29.0426 906.714 29.0958 906.551 29.1451L906.551 29.1449ZM616.231 34.2794C579.642 34.2794 551.38 56.3755 551.38 92.3212C551.38 128.481 579.642 150.586 616.231 150.586C653.056 150.586 681.416 128.481 681.416 92.3212C681.416 56.3755 653.056 34.2794 616.231 34.2794ZM770.711 34.2794C755.33 34.2794 743.798 42.816 732.426 51.4687C732.426 51.4687 731.31 53.0269 731.31 51.2455V35.1723C731.31 33.9401 730.193 34.6142 730.193 34.6142L681.639 47.4504C681.639 47.4504 680.635 47.4504 680.635 48.6782V59.8401C680.635 61.0724 681.751 60.5098 681.751 60.5098C681.751 60.5098 686.024 59.4963 687.667 58.9472C689.306 58.398 688.783 59.7285 688.783 59.7285V132.839C688.783 132.839 689.097 133.843 688.002 133.843H681.416C681.416 133.843 680.635 133.482 680.635 134.848V146.122C680.635 147.626 681.416 147.238 681.416 147.238H739.012C739.012 147.238 739.793 147.416 739.793 146.456V134.848C739.793 133.482 738.676 133.843 738.676 133.843H731.756C730.662 133.843 730.863 133.062 730.863 133.062V71.2252C730.863 70.1314 731.645 69.551 731.645 69.551C736.895 65.1308 742.298 61.0679 749.727 61.0679C755.937 61.0679 761.893 64.421 761.893 70.8904V133.062C761.893 133.062 762.208 133.843 761.112 133.843H754.415C754.415 133.843 753.187 133.754 753.187 134.848V146.456C753.187 147.416 754.192 147.238 754.192 147.238H810.783C810.783 147.238 811.898 147.626 811.898 146.122V134.848C811.898 133.62 810.894 133.843 810.894 133.843H804.867C803.911 133.843 804.086 132.727 804.086 132.727V65.9792C804.086 53.6966 799.942 34.2794 770.711 34.2794ZM79.7902 34.3908C69.5837 34.3908 61.824 38.5386 51.997 44.4365C51.997 44.4365 50.8809 44.9723 50.8809 43.8784V35.507C50.8809 34.2792 49.7647 34.6141 49.7647 34.6141L1.65691 47.0038C1.65691 47.0038 0.652344 47.0038 0.652344 48.2316V59.3935C0.652344 60.8981 1.76853 60.398 1.76853 60.398L7.34948 59.0586C7.34948 59.0586 8.68891 58.4469 8.68891 59.9516V166.994C8.68891 166.994 8.74248 168.557 7.23786 168.557H1.99177C1.99177 168.557 0.652344 168.365 0.652344 170.008V180.5C0.652344 182.005 2.43825 181.951 2.43825 181.951H64.61C64.61 181.951 65.8378 181.482 65.8378 180.388V170.008C65.8378 168.503 64.4984 168.557 64.4984 168.557H52.2203C50.8496 168.557 50.8809 166.659 50.8809 166.659V147.349C50.8809 146.255 51.7738 146.679 51.7738 146.679C57.9486 149.823 66.6504 150.698 73.2046 150.698C107.266 150.698 127.005 119.221 127.005 87.7447C127.005 55.8217 106.257 34.3908 79.7902 34.3908V34.3908ZM869.717 34.5023C869.439 34.4773 869.159 34.6137 869.159 34.6137L820.828 47.8964C820.828 47.8964 819.935 47.941 819.935 48.9009V59.728C819.935 61.2326 821.274 60.6209 821.274 60.6209C821.274 60.6209 824.44 59.9423 827.19 59.5047C828.57 59.2768 828.195 60.5584 828.195 61.5139V132.727C828.195 132.727 828.561 133.843 827.19 133.843H820.382C820.382 133.843 819.489 133.454 819.489 134.959V146.344C819.489 147.71 820.382 147.237 820.382 147.237H876.972C878.339 147.237 877.865 146.121 877.865 146.121C877.865 146.121 877.83 136.732 877.865 134.959C877.901 133.45 876.861 133.843 876.861 133.843H871.28C869.914 133.843 870.275 132.838 870.275 132.838V35.395C870.275 34.7097 869.993 34.5261 869.717 34.5021V34.5023ZM484.967 48.343C502.232 48.343 509.3 82.0475 509.3 94.1068C509.3 104.818 505.871 109.064 497.357 109.064C480.096 109.064 472.912 75.3548 472.912 63.2999C472.912 52.5801 476.453 48.343 484.967 48.343ZM609.087 51.2451C632.335 51.2451 639.336 92.3253 639.336 108.394C639.336 120.449 636.023 133.62 623.598 133.62C600.354 133.62 593.46 92.5396 593.46 76.471C593.46 68.2067 593.425 51.2451 609.087 51.2451V51.2451ZM57.4664 58.0539C64.6011 58.0539 84.9246 60.0675 84.9246 100.246C84.9246 125.253 78.8615 133.731 65.0565 133.731C54.0107 133.731 50.8809 125.472 50.8809 115.649V60.8443C50.8809 59.3352 52.1087 58.9468 52.1087 58.9468L57.4664 58.0539V58.0539ZM188.842 89.4188H194.423C195.789 89.4188 195.539 90.3117 195.539 90.3117V110.85C195.539 119.333 193.4 127.146 182.814 127.146C171.532 127.146 169.085 117.324 169.085 108.617C169.085 97.2321 177.332 89.4188 188.842 89.4188V89.4188ZM378.706 89.4188H384.287C385.653 89.4188 385.291 90.3117 385.291 90.3117V110.85C385.291 119.333 383.264 127.146 372.678 127.146C361.405 127.146 358.837 117.328 358.837 108.617C358.837 97.2321 367.2 89.4188 378.706 89.4188V89.4188ZM940.037 89.4188H945.618C946.984 89.4188 946.623 90.3117 946.623 90.3117V110.85C946.623 119.333 944.6 127.146 934.01 127.146C922.736 127.146 920.169 117.328 920.169 108.617C920.169 97.2321 928.531 89.4188 940.037 89.4188V89.4188ZM492.11 152.149C492.385 152.15 492.557 152.26 492.557 152.26C500.138 156.877 505.616 160.359 505.616 170.231C505.616 175.808 502.665 178.491 496.91 178.491C490.463 178.491 487.422 172.459 487.422 166.882C487.422 161.958 489.195 154.587 490.882 152.818C491.394 152.281 491.834 152.148 492.11 152.149V152.149Z" fill="#F9CDCD"/>
<path d="M1001.49 20.4426C1000.76 20.0452 999.584 19.8488 997.963 19.8488H995.476V25.6217H998.11C999.343 25.6217 1000.27 25.501 1000.88 25.2692C1002.02 24.8316 1002.59 24.0012 1002.59 22.7734C1002.59 21.617 1002.22 20.8401 1001.49 20.4428V20.4426ZM998.401 17.8398C1000.41 17.8398 1001.88 18.0362 1002.82 18.4202C1004.49 19.1167 1005.33 20.4785 1005.33 22.5099C1005.33 23.9476 1004.8 25.0147 1003.76 25.6933C1003.2 26.055 1002.43 26.3139 1001.44 26.4746C1002.68 26.6754 1003.59 27.1979 1004.16 28.0507C1004.74 28.899 1005.02 29.7339 1005.02 30.542V31.7207C1005.02 32.0913 1005.04 32.4887 1005.07 32.9173C1005.09 33.3414 1005.15 33.6183 1005.22 33.7522L1005.33 33.9529H1002.67C1002.65 33.8994 1002.64 33.8458 1002.63 33.7922C1002.61 33.7386 1002.6 33.6808 1002.59 33.6136L1002.53 33.0957V31.8232C1002.53 29.9659 1002.01 28.7426 1000.98 28.1443C1000.37 27.8007 999.293 27.6308 997.757 27.6308H995.476V33.9529H992.744V17.8396H998.4L998.401 17.8398ZM989.748 17.0495C987.283 19.5096 986.056 22.4787 986.056 25.9612C986.056 29.466 987.279 32.4529 989.726 34.9264C992.186 37.3954 995.173 38.6322 998.691 38.6322C1002.2 38.6322 1005.2 37.3954 1007.65 34.9264C1010.12 32.4529 1011.34 29.466 1011.34 25.9612C1011.34 22.4787 1010.12 19.5096 1007.65 17.0495C1005.18 14.5805 1002.19 13.3438 998.691 13.3438C995.199 13.3438 992.221 14.5805 989.748 17.0495V17.0495ZM1009.05 36.3284C1006.2 39.2037 1002.73 40.6368 998.668 40.6368C994.605 40.6368 991.154 39.2037 988.301 36.3284C985.466 33.4709 984.051 30.0063 984.051 25.9389C984.051 21.9072 985.48 18.4649 988.346 15.6074C991.194 12.7589 994.632 11.3391 998.668 11.3391C1002.73 11.3391 1006.2 12.7589 1009.05 15.6074C1011.92 18.4515 1013.35 21.8983 1013.35 25.9389C1013.35 29.9929 1011.92 33.4575 1009.05 36.3284Z" fill="#F9CDCD"/>
</svg>
