<svg width="103" height="119" viewBox="0 0 103 119" fill="none" xmlns="http://www.w3.org/2000/svg">
<path d="M58.76 117.95H1V1.23999H61.05C74.2261 1.23999 83.3448 4.24133 89.1589 9.26186C94.949 14.2616 97.61 21.3934 97.61 30C97.61 40.7777 90.4666 51.5582 80.9649 56.1496L78.7358 57.2268L81.0877 58C93.1482 61.9649 101.51 71.8104 101.51 83.59C101.51 94.6057 97.5878 103.141 90.3731 108.947C83.1274 114.778 72.4416 117.95 58.76 117.95ZM32.22 23H31.22V24V49.42V50.42H32.22H50.87C56.5806 50.42 60.8831 49.2565 63.7698 46.8852C66.6944 44.4827 68 40.9803 68 36.7C68 32.4608 66.8885 28.9499 64.0363 26.5344C61.2232 24.152 56.9044 23 50.87 23H32.22ZM51.57 68.77V68.79H32.22H31.22V69.79V95.21V96.21H32.22H53.42C59.4475 96.21 63.9617 95.096 66.9834 92.757C70.0577 90.3773 71.42 86.8643 71.42 82.49L71.42 82.4853C71.399 78.0274 70.0382 74.5019 66.8443 72.142C63.7181 69.8321 59.0026 68.77 52.57 68.77H51.57Z" stroke="black" stroke-width="2"/>
</svg>
