<svg width="252" height="149" viewBox="0 0 252 149" fill="none" xmlns="http://www.w3.org/2000/svg">
<path d="M205.484 74.5C233.032 86.6909 251.097 104.752 252 125.07C252 125.07 244.774 130.488 221.29 139.518C200.516 147.194 184.71 149 184.71 149V103.848C184.71 97.0758 182 90.303 177.032 83.9818C161.226 87.5939 144.065 89.8515 126 89.8515C107.935 89.8515 90.3226 87.5939 74.9677 83.9818C70 90.303 67.2903 97.0758 67.2903 103.848V149C67.2903 149 51.4839 147.194 30.7097 139.518C7.22581 130.939 0 125.07 0 125.07C0.903226 104.752 18.9677 86.6909 46.5161 74.5C18.9677 62.3091 0.903226 44.2485 0 23.9303C0 23.9303 7.22581 18.5121 30.7097 9.48182C51.4839 1.80606 67.2903 0 67.2903 0V45.1515C67.2903 51.9242 70 58.697 74.9677 65.0182C90.7742 61.4061 107.935 59.1485 126 59.1485C144.065 59.1485 161.677 61.4061 177.032 65.0182C182 58.697 184.71 51.9242 184.71 45.1515V0C184.71 0 200.516 1.80606 221.29 9.48182C244.774 18.0606 252 23.9303 252 23.9303C251.097 43.797 233.032 62.3091 205.484 74.5ZM126 64.1152H125.548C109.29 64.1152 95.7419 68.1788 86.2581 74.0485C96.1935 80.3697 109.29 83.9818 126 83.9818H126.452H126.903C143.161 83.9818 156.71 79.9182 166.194 74.0485C156.258 67.7273 143.161 64.1152 126.452 64.1152" fill="#F9CDCD"/>
</svg>
