<svg width="159" height="86" viewBox="0 0 159 86" fill="none" xmlns="http://www.w3.org/2000/svg">
<path d="M35.4 50.1H21.7V67.7H36C44 67.7 47.4 64.6001 47.4 58.9001C47.4 53.0001 44 50.1 35.4 50.1ZM34.3 18.3H21.7V36H34.3C41.8 36 45.1 32.8001 45.1 27.2001C45.1 21.5001 42.3 18.3 34.3 18.3ZM0 1.80005H41.1C59 1.80005 66.4 10.2 66.4 22.4C66.4 31.9 61.4 37.9001 54.8 41.2001C63.2 44.1001 69 49.9001 69 59.7001C69 75.3001 58.1 84.2 39.5 84.2H0V1.80005Z" fill="white"/>
<path d="M115.6 78.8C95.7996 78.8 79.7996 62.8 79.7996 43C79.7996 23.2 95.7996 7.2 115.6 7.2C135.4 7.2 151.4 23.2 151.4 43C151.4 62.8 135.4 78.8 115.6 78.8ZM115.6 0C91.8996 0 72.5996 19.3 72.5996 43C72.5996 66.7 91.8996 86 115.6 86C139.3 86 158.6 66.7 158.6 43C158.6 19.3 139.4 0 115.6 0Z" fill="white"/>
<path d="M118.2 27.8H106.1V42.1H118.2C122.2 42.1 124.7 39.3 124.7 34.9C124.7 30.7 122.3 27.8 118.2 27.8ZM96.8002 20.6H117.8C128 20.6 134 25.1 134 34.7C134 40.2 131.2 44.9 125.7 46.9L136.1 63.6H125.7L116.4 49.3H106V63.6H96.7002V20.6H96.8002Z" fill="white"/>
</svg>
