<svg width="545" height="126" viewBox="0 0 545 126" fill="none" xmlns="http://www.w3.org/2000/svg">
<path d="M0 4.23999H61.05C87.67 4.23999 98.61 16.36 98.61 34C98.61 45.18 91.23 56.3 81.4 61.05C93.78 65.12 102.51 75.29 102.51 87.59C102.51 110.14 86.4 122.95 58.76 122.95H0V4.23999ZM50.87 28H32.22V53.42H50.87C62.07 53.42 67 48.84 67 40.7C67 32.56 62.75 28 50.87 28ZM52.57 73.79H32.22V99.21H53.42C65.29 99.21 70.42 94.8 70.42 86.49C70.38 78 65.29 73.77 52.57 73.77V73.79Z" fill="#F9CDCD"/>
<path d="M218.76 81.68H250.13C250.81 94.27 260.39 101.68 273.44 101.68C284.98 101.68 292.27 97.32 292.27 89.62C292.27 84.21 289.27 80.89 279.04 78.79L253.6 73.38C233.76 69.19 221 58.87 221 39C221 15.4 241.52 0.900024 269.67 0.900024C299.01 0.900024 322.16 12.52 322.16 41.54H290.83C290 30.47 281.75 25 269.88 25C259.2 25 253.26 29.89 253.26 35.83C253.26 41.25 256.32 44.57 266.49 46.67L291.93 52.09C311.77 56.28 324.49 66.59 324.49 86.52C324.49 110.99 304.49 125.52 272.6 125.52C237.32 125.49 219.44 109 218.76 81.68Z" fill="#F9CDCD"/>
<path d="M434.89 97.88C449.64 97.88 458.55 88.88 460.41 78.22H493.48C490.6 110.02 464.9 125.49 434.89 125.49C395.89 125.49 373.16 100.49 373.16 62.75C373.16 25.01 395.88 0 434.89 0C464.89 0 490.6 15.82 493.48 47.63H460.41C458.55 36.97 449.64 27.63 434.89 27.63C417.59 27.63 406.89 42.49 406.89 62.77C406.89 83.05 417.59 97.88 434.89 97.88Z" fill="#F9CDCD"/>
<path d="M364.601 3.39001H332.381V122.1H364.601V3.39001Z" fill="#F9CDCD"/>
<path d="M189.931 122.1H223.001L181.451 3.39001H140.751L99.2109 122.1H132.271L138.561 101.75H183.641L189.931 122.1ZM146.431 76.31L160.841 29.68H161.361L175.781 76.31H146.431Z" fill="#F9CDCD"/>
<path d="M521.179 0.849978C516.567 0.849978 512.058 2.21767 508.223 4.78011C504.389 7.34254 501.4 10.9846 499.635 15.2458C497.869 19.507 497.408 24.1958 498.307 28.7195C499.207 33.2431 501.428 37.3983 504.69 40.6597C507.951 43.9211 512.106 46.1421 516.63 47.0419C521.154 47.9417 525.842 47.4799 530.104 45.7148C534.365 43.9498 538.007 40.9608 540.569 37.1259C543.132 33.2909 544.499 28.7822 544.499 24.17C544.501 21.1072 543.898 18.0742 542.727 15.2442C541.555 12.4143 539.838 9.84304 537.672 7.67732C535.506 5.51159 532.935 3.7939 530.105 2.62243C527.275 1.45096 524.242 0.848664 521.179 0.849978V0.849978ZM521.179 43.6C517.334 43.602 513.574 42.4632 510.375 40.3279C507.177 38.1926 504.684 35.1566 503.211 31.604C501.738 28.0514 501.353 24.1418 502.102 20.3699C502.852 16.598 504.704 13.1332 507.423 10.4138C510.143 7.69449 513.607 5.8428 517.379 5.09303C521.151 4.34325 525.061 4.72907 528.613 6.20168C532.166 7.67428 535.202 10.1675 537.337 13.3659C539.473 16.5644 540.611 20.3243 540.609 24.17C540.609 29.3231 538.562 34.2652 534.918 37.9091C531.275 41.5529 526.333 43.6 521.179 43.6V43.6Z" fill="#F9CDCD"/>
<path d="M511.471 11.86H523.231C528.941 11.86 532.291 14.29 532.291 19.51C532.335 20.9625 531.908 22.3903 531.073 23.58C530.239 24.7696 529.042 25.6572 527.661 26.11L533.491 35.18H527.661L522.481 27.4H516.651V35.18H511.471V11.86ZM523.471 15.75H516.691V23.52H523.471C525.731 23.52 527.111 21.97 527.111 19.61C527.159 19.1066 527.098 18.5987 526.932 18.1209C526.767 17.643 526.5 17.2063 526.151 16.8403C525.803 16.4743 525.379 16.1875 524.91 15.9994C524.44 15.8113 523.936 15.7262 523.431 15.75H523.471Z" fill="#F9CDCD"/>
</svg>
